<svg xmlns="http://www.w3.org/2000/svg" xmlns:xlink="http://www.w3.org/1999/xlink" preserveAspectRatio="xMidYMid meet" width="500" height="500" viewBox="0 0 500 500" style="width:100%;height:100%"><defs><animateMotion repeatCount="indefinite" dur="2s" begin="0s" xlink:href="#_R_G_L_4_G" fill="freeze" keyTimes="0;0.0083333;0.1833333;0.325;0.5;0.6583333;0.8083333;0.975;1" path="M50 50 C50,50 50,50 50,50 C50,38.5 50,-21 50,-19 C50,-17 50,62 50,62 C50,62 50,-20 50,-19 C50,-18 50,62.17 50,68 C50,73.83 50,19 50,16 C50,13 50,44.33 50,50 C50,50 50,50 50,50 " keyPoints="0;0;0.17;0.37;0.57;0.78;0.92;1;1" keySplines="0.26 0 0.74 1;0.26 0 0.74 1;0.26 0 0.74 1;0.26 0 0.74 1;0.26 0 0.74 1;0.26 0 0.74 1;0.26 0 0.74 1;0 0 0 0" calcMode="spline"/><animateTransform repeatCount="indefinite" dur="2s" begin="0s" xlink:href="#_R_G_L_4_G" fill="freeze" attributeName="transform" from="0" to="0" type="rotate" additive="sum" keyTimes="0;0.0666667;0.225;0.375;0.525;0.6916667;1" values="0;0;-5;2;-4;0;0" keySplines="0.26 0 0.74 1;0.26 0 0.74 1;0.26 0 0.74 1;0.26 0 0.74 1;0.26 0 0.74 1;0 0 0 0" calcMode="spline"/><animateMotion repeatCount="indefinite" dur="2s" begin="0s" xlink:href="#_R_G_L_3_G" fill="freeze" keyTimes="0;0.025;0.1416667;0.2833333;0.4583333;0.6166667;0.7666667;0.9333333;1" path="M-121.59 203.37 C-121.59,203.37 -121.59,203.37 -121.59,203.37 C-121.59,191.87 -121.59,128.21 -121.59,134.37 C-121.59,140.54 -121.59,240.37 -121.59,240.37 C-121.59,240.37 -121.59,137.54 -121.59,134.37 C-121.59,131.21 -121.59,215.54 -121.59,221.37 C-121.59,227.21 -121.59,172.37 -121.59,169.37 C-121.59,166.37 -121.59,197.71 -121.59,203.37 C-121.59,203.37 -121.59,203.37 -121.59,203.37 " keyPoints="0;0;0.15;0.39;0.62;0.81;0.92;1;1" keySplines="0.26 0 0.74 1;0.26 0 0.74 1;0.26 0 0.74 1;0.26 0 0.74 1;0.26 0 0.74 1;0.26 0 0.74 1;0.26 0 0.74 1;0 0 0 0" calcMode="spline"/><animateTransform repeatCount="indefinite" dur="2s" begin="0s" xlink:href="#_R_G_L_3_G" fill="freeze" attributeName="transform" from="0" to="0" type="rotate" additive="sum" keyTimes="0;0.1583333;0.3083333;0.4583333;0.625;1" values="0;-5;2;-4;0;0" keySplines="0.26 0 0.74 1;0.26 0 0.74 1;0.26 0 0.74 1;0.26 0 0.74 1;0 0 0 0" calcMode="spline"/><animateTransform repeatCount="indefinite" dur="2s" begin="0s" xlink:href="#_R_G_L_3_G" fill="freeze" attributeName="transform" from="171.589 -153.374" to="171.589 -153.374" type="translate" additive="sum" keyTimes="0;1" values="171.589 -153.374;171.589 -153.374" keySplines="0 0 1 1" calcMode="spline"/><animateMotion repeatCount="indefinite" dur="2s" begin="0s" xlink:href="#_R_G_L_2_G" fill="freeze" keyTimes="0;0.1166667;0.2583333;0.4333333;0.5916667;0.7416667;0.9083333;1" path="M-121.59 169.93 C-121.59,158.43 -121.59,99.76 -121.59,100.93 C-121.59,102.09 -121.59,176.93 -121.59,176.93 C-121.59,176.93 -121.59,100.93 -121.59,100.93 C-121.59,100.93 -121.59,171.09 -121.59,176.93 C-121.59,182.76 -121.59,137.09 -121.59,135.93 C-121.59,134.76 -121.59,164.26 -121.59,169.93 C-121.59,169.93 -121.59,169.93 -121.59,169.93 " keyPoints="0;0.19;0.39;0.59;0.8;0.91;1;1" keySplines="0.26 0 0.74 1;0.26 0 0.74 1;0.26 0 0.74 1;0.26 0 0.74 1;0.26 0 0.74 1;0.26 0 0.74 1;0 0 0 0" calcMode="spline"/><animateTransform repeatCount="indefinite" dur="2s" begin="0s" xlink:href="#_R_G_L_2_G" fill="freeze" attributeName="transform" from="0" to="0" type="rotate" additive="sum" keyTimes="0;0.1583333;0.3083333;0.4583333;0.625;1" values="0;-9.035;2;-9.035;0;0" keySplines="0.26 0 0.74 1;0.26 0 0.74 1;0.26 0 0.74 1;0.26 0 0.74 1;0 0 0 0" calcMode="spline"/><animateTransform repeatCount="indefinite" dur="2s" begin="0s" xlink:href="#_R_G_L_2_G" fill="freeze" attributeName="transform" from="171.589 -119.927" to="171.589 -119.927" type="translate" additive="sum" keyTimes="0;1" values="171.589 -119.927;171.589 -119.927" keySplines="0 0 1 1" calcMode="spline"/><animateMotion repeatCount="indefinite" dur="2s" begin="0s" xlink:href="#_R_G_L_1_G_L_1_G" fill="freeze" keyTimes="0;0.025;0.1416667;0.2833333;0.4583333;0.6166667;0.7666667;0.9333333;1" path="M78.41 403.37 C78.41,403.37 78.41,403.37 78.41,403.37 C78.41,391.87 78.41,328.21 78.41,334.37 C78.41,340.54 78.41,440.37 78.41,440.37 C78.41,440.37 78.41,337.54 78.41,334.37 C78.41,331.21 78.41,415.54 78.41,421.37 C78.41,427.21 78.41,372.37 78.41,369.37 C78.41,366.37 78.41,397.71 78.41,403.37 C78.41,403.37 78.41,403.37 78.41,403.37 " keyPoints="0;0;0.15;0.39;0.62;0.81;0.92;1;1" keySplines="0.26 0 0.74 1;0.26 0 0.74 1;0.26 0 0.74 1;0.26 0 0.74 1;0.26 0 0.74 1;0.26 0 0.74 1;0.26 0 0.74 1;0 0 0 0" calcMode="spline"/><animateTransform repeatCount="indefinite" dur="2s" begin="0s" xlink:href="#_R_G_L_1_G_L_1_G" fill="freeze" attributeName="transform" from="0" to="0" type="rotate" additive="sum" keyTimes="0;0.1583333;0.3083333;0.4583333;0.625;1" values="0;-5;2;-4;0;0" keySplines="0.26 0 0.74 1;0.26 0 0.74 1;0.26 0 0.74 1;0.26 0 0.74 1;0 0 0 0" calcMode="spline"/><animateTransform repeatCount="indefinite" dur="2s" begin="0s" xlink:href="#_R_G_L_1_G_L_1_G" fill="freeze" attributeName="transform" from="171.589 -153.374" to="171.589 -153.374" type="translate" additive="sum" keyTimes="0;1" values="171.589 -153.374;171.589 -153.374" keySplines="0 0 1 1" calcMode="spline"/><animateMotion repeatCount="indefinite" dur="2s" begin="0s" xlink:href="#_R_G_L_1_G_L_0_G" fill="freeze" keyTimes="0;0.0666667;0.1833333;0.325;0.5;0.6583333;0.8083333;0.975;1" path="M250 250 C250,250 250,250 250,250 C250,238.5 250,174.83 250,181 C250,187.17 250,287 250,287 C250,287 250,184.17 250,181 C250,177.83 250,262.17 250,268 C250,273.83 250,219 250,216 C250,213 250,244.33 250,250 C250,250 250,250 250,250 " keyPoints="0;0;0.15;0.39;0.62;0.81;0.92;1;1" keySplines="0.26 0 0.74 1;0.26 0 0.74 1;0.26 0 0.74 1;0.26 0 0.74 1;0.26 0 0.74 1;0.26 0 0.74 1;0.26 0 0.74 1;0 0 0 0" calcMode="spline"/><animateTransform repeatCount="indefinite" dur="2s" begin="0s" xlink:href="#_R_G_L_1_G_L_0_G" fill="freeze" attributeName="transform" from="0" to="0" type="rotate" additive="sum" keyTimes="0;0.0666667;0.225;0.375;0.525;0.6916667;1" values="0;0;-5;2;-4;0;0" keySplines="0.26 0 0.74 1;0.26 0 0.74 1;0.26 0 0.74 1;0.26 0 0.74 1;0.26 0 0.74 1;0 0 0 0" calcMode="spline"/><animateMotion repeatCount="indefinite" dur="2s" begin="0s" xlink:href="#_R_G_L_0_G" fill="freeze" keyTimes="0;0.025;0.1416667;0.2833333;0.4583333;0.6166667;0.7666667;0.9333333;1" path="M-121.59 203.37 C-121.59,203.37 -121.59,203.37 -121.59,203.37 C-121.59,191.87 -121.59,128.21 -121.59,134.37 C-121.59,140.54 -121.59,240.37 -121.59,240.37 C-121.59,240.37 -121.59,137.54 -121.59,134.37 C-121.59,131.21 -121.59,215.54 -121.59,221.37 C-121.59,227.21 -121.59,172.37 -121.59,169.37 C-121.59,166.37 -121.59,197.71 -121.59,203.37 C-121.59,203.37 -121.59,203.37 -121.59,203.37 " keyPoints="0;0;0.15;0.39;0.62;0.81;0.92;1;1" keySplines="0.26 0 0.74 1;0.26 0 0.74 1;0.26 0 0.74 1;0.26 0 0.74 1;0.26 0 0.74 1;0.26 0 0.74 1;0.26 0 0.74 1;0 0 0 0" calcMode="spline"/><animateTransform repeatCount="indefinite" dur="2s" begin="0s" xlink:href="#_R_G_L_0_G" fill="freeze" attributeName="transform" from="0" to="0" type="rotate" additive="sum" keyTimes="0;0.1583333;0.3083333;0.4583333;0.625;1" values="0;-5;2;-4;0;0" keySplines="0.26 0 0.74 1;0.26 0 0.74 1;0.26 0 0.74 1;0.26 0 0.74 1;0 0 0 0" calcMode="spline"/><animateTransform repeatCount="indefinite" dur="2s" begin="0s" xlink:href="#_R_G_L_0_G" fill="freeze" attributeName="transform" from="171.589 -153.374" to="171.589 -153.374" type="translate" additive="sum" keyTimes="0;1" values="171.589 -153.374;171.589 -153.374" keySplines="0 0 1 1" calcMode="spline"/><animate attributeType="XML" attributeName="opacity" dur="2s" from="0" to="1" xlink:href="#time_group"/></defs><g id="_R_G"><g id="_R_G_L_4_G_N_1_N_7_T_0" transform=" translate(250, 250) translate(0, 0)"><g id="_R_G_L_4_G_N_1_T_0" transform=" translate(0, 0) translate(-50, -50)"><g id="_R_G_L_4_G"><path id="_R_G_L_4_G_D_0_P_0" stroke="#e7b70b" stroke-linecap="round" stroke-linejoin="round" fill="none" stroke-width="16" stroke-opacity="1" d=" M32.05 82.44 C32.05,82.44 136.34,82.44 136.34,82.44 C136.34,82.44 136.34,-24.44 136.34,-24.44 C136.34,-24.44 32.05,-24.44 32.05,-24.44 C32.05,-24.44 32.05,39.82 32.05,39.82 C32.05,39.82 32.05,82.44 32.05,82.44z "/><path id="_R_G_L_4_G_D_1_P_0" stroke="#e7b70b" stroke-linecap="round" stroke-linejoin="round" fill="none" stroke-width="16" stroke-opacity="1" d=" M-2.8 -153.34 C-2.8,-153.34 -2.8,-69.71 -2.8,-69.71 C-2.8,-69.71 32.05,-85.58 32.05,-85.58 C32.05,-85.58 66.91,-69.71 66.91,-69.71 C66.91,-69.71 66.91,-153.34 66.91,-153.34 "/><path id="_R_G_L_4_G_D_2_P_0" stroke="#e7b70b" stroke-linecap="round" stroke-linejoin="round" fill="none" stroke-width="16" stroke-opacity="1" d=" M84.2 42.94 C84.2,42.94 104.94,42.94 104.94,42.94 "/><path id="_R_G_L_4_G_D_3_P_0" stroke="#e7b70b" stroke-linecap="round" stroke-linejoin="round" fill="none" stroke-width="16" stroke-opacity="1" d=" M63.46 15.05 C63.46,15.05 104.94,15.05 104.94,15.05 "/><path id="_R_G_L_4_G_D_4_P_0" stroke="#000000" stroke-linecap="round" stroke-linejoin="round" fill="none" stroke-width="16" stroke-opacity="1" d=" M44.55 125 C44.55,125 171.48,125 171.48,125 C171.48,125 171.48,-153.37 171.48,-153.37 C171.48,-153.37 -107.38,-153.37 -107.38,-153.37 C-107.38,-153.37 -107.38,125 -107.38,125 C-107.38,125 44.55,125 44.55,125z "/><path id="_R_G_L_4_G_D_5_P_0" stroke="#000000" stroke-linecap="round" stroke-linejoin="round" fill="none" stroke-width="16" stroke-opacity="0" d=" M247 -236 C247,-236 247,203 247,203 C247,203 -227,203 -227,203 C-227,203 -227,-236 -227,-236 C-227,-236 247,-236 247,-236z "/></g></g></g><g id="_R_G_L_3_G_N_1_N_7_T_0" transform=" translate(250, 250) translate(0, 0)"><g id="_R_G_L_3_G_N_1_T_0" transform=" translate(0, 0) translate(-50, -50)"><g id="_R_G_L_3_G"><path id="_R_G_L_3_G_D_0_P_0" fill="#ffffff" fill-opacity="1" fill-rule="nonzero" d=" M44.55 96.62 C44.55,96.62 -26.45,96.62 -26.45,96.62 "/><path id="_R_G_L_3_G_D_0_P_1" fill="#ffffff" fill-opacity="1" fill-rule="nonzero" d=" M44.55 68.25 C44.55,68.25 -26.45,68.25 -26.45,68.25 "/><path id="_R_G_L_3_G_D_0_P_2" fill="#ffffff" fill-opacity="1" fill-rule="nonzero" d=" M-171.59 39.88 C-171.59,39.88 -125.52,39.88 -125.52,39.88 C-125.52,39.88 -80.1,-8.1 -80.1,-8.1 C-75.42,-13.77 -70.3,-16.87 -62.49,-16.87 C-62.49,-16.87 -26.45,-16.87 -26.45,-16.87 C-18.65,-16.87 -12.26,-10.49 -12.26,-2.69 C-12.26,5.11 -18.67,10.99 -26.45,11.5 C-26.45,11.5 -50.46,14.29 -50.46,14.29 C-50.46,14.29 -61.97,39.88 -61.97,39.88 C-61.97,39.88 44.55,39.88 44.55,39.88 C52.35,39.88 58.74,46.26 58.74,54.06 C58.74,61.86 52.35,68.25 44.55,68.25 C44.55,68.25 58.74,68.25 58.74,68.25 C66.54,68.25 72.92,74.63 72.92,82.44 C72.92,90.24 66.54,96.62 58.74,96.62 C58.74,96.62 44.55,96.62 44.55,96.62 C52.35,96.62 58.74,103.01 58.74,110.81 C58.74,118.62 52.35,125 44.55,125 C44.55,125 16.17,125 16.17,125 C23.98,125 30.36,131.38 30.36,139.19 C30.36,146.99 23.98,153.37 16.17,153.37 C16.17,153.37 -171.52,153.37 -171.52,153.37 C-171.52,153.37 -171.59,39.88 -171.59,39.88z "/><path id="_R_G_L_3_G_D_1_P_0" stroke="#000000" stroke-linecap="round" stroke-linejoin="round" fill="none" stroke-width="16" stroke-opacity="1" d=" M44.55 96.62 C44.55,96.62 -26.45,96.62 -26.45,96.62 "/><path id="_R_G_L_3_G_D_2_P_0" stroke="#000000" stroke-linecap="round" stroke-linejoin="round" fill="none" stroke-width="16" stroke-opacity="1" d=" M44.55 68.25 C44.55,68.25 -26.45,68.25 -26.45,68.25 "/><path id="_R_G_L_3_G_D_3_P_0" stroke="#000000" stroke-linecap="round" stroke-linejoin="round" fill="none" stroke-width="16" stroke-opacity="1" d=" M-171.59 39.88 C-171.59,39.88 -125.52,39.88 -125.52,39.88 C-125.52,39.88 -80.1,-8.1 -80.1,-8.1 C-75.42,-13.77 -70.3,-16.87 -62.49,-16.87 C-62.49,-16.87 -26.45,-16.87 -26.45,-16.87 C-18.65,-16.87 -12.26,-10.49 -12.26,-2.69 C-12.26,5.11 -18.67,10.99 -26.45,11.5 C-26.45,11.5 -50.46,14.29 -50.46,14.29 C-50.46,14.29 -61.97,39.88 -61.97,39.88 C-61.97,39.88 44.55,39.88 44.55,39.88 C52.35,39.88 58.74,46.26 58.74,54.06 C58.74,61.86 52.35,68.25 44.55,68.25 C44.55,68.25 58.74,68.25 58.74,68.25 C66.54,68.25 72.92,74.63 72.92,82.44 C72.92,90.24 66.54,96.62 58.74,96.62 C58.74,96.62 44.55,96.62 44.55,96.62 C52.35,96.62 58.74,103.01 58.74,110.81 C58.74,118.62 52.35,125 44.55,125 C44.55,125 16.17,125 16.17,125 C23.98,125 30.36,131.38 30.36,139.19 C30.36,146.99 23.98,153.37 16.17,153.37 C16.17,153.37 -171.52,153.37 -171.52,153.37 C-171.52,153.37 -171.59,39.88 -171.59,39.88z "/></g></g></g><g id="_R_G_L_2_G_N_1_N_7_T_0" transform=" translate(250, 250) translate(0, 0)"><g id="_R_G_L_2_G_N_1_T_0" transform=" translate(0, 0) translate(-50, -50)"><g id="_R_G_L_2_G"><path id="_R_G_L_2_G_D_0_P_0" stroke="#000000" stroke-linecap="round" stroke-linejoin="round" fill="none" stroke-width="16" stroke-opacity="0" d=" M247 -236 C247,-236 247,203 247,203 C247,203 -227,203 -227,203 C-227,203 -227,-236 -227,-236 C-227,-236 247,-236 247,-236z "/><path id="_R_G_L_2_G_D_1_P_0" stroke="#000000" stroke-linecap="round" stroke-linejoin="round" fill="none" stroke-width="16" stroke-opacity="1" d=" M44.55 63.18 C44.55,63.18 -26.45,63.18 -26.45,63.18 "/><path id="_R_G_L_2_G_D_2_P_0" stroke="#000000" stroke-linecap="round" stroke-linejoin="round" fill="none" stroke-width="16" stroke-opacity="1" d=" M44.55 34.8 C44.55,34.8 -26.45,34.8 -26.45,34.8 "/><path id="_R_G_L_2_G_D_3_P_0" stroke="#000000" stroke-linecap="round" stroke-linejoin="round" fill="none" stroke-width="16" stroke-opacity="1" d=" M-171.59 6.43 C-171.59,6.43 -125.52,6.43 -125.52,6.43 C-125.52,6.43 -80.1,-41.54 -80.1,-41.54 C-75.42,-47.22 -70.3,-50.32 -62.49,-50.32 C-62.49,-50.32 -26.45,-50.32 -26.45,-50.32 C-18.65,-50.32 -12.26,-43.94 -12.26,-36.13 C-12.26,-28.33 -18.67,-22.45 -26.45,-21.95 C-26.45,-21.95 -50.46,-19.15 -50.46,-19.15 C-50.46,-19.15 -61.97,6.43 -61.97,6.43 C-61.97,6.43 44.55,6.43 44.55,6.43 C52.35,6.43 58.74,12.81 58.74,20.62 C58.74,28.42 52.35,34.8 44.55,34.8 C44.55,34.8 58.74,34.8 58.74,34.8 C66.54,34.8 72.92,41.19 72.92,48.99 C72.92,56.79 66.54,63.18 58.74,63.18 C58.74,63.18 44.55,63.18 44.55,63.18 C52.35,63.18 58.74,69.56 58.74,77.36 C58.74,85.17 52.35,91.55 44.55,91.55 C44.55,91.55 16.17,91.55 16.17,91.55 C23.98,91.55 30.36,97.94 30.36,105.74 C30.36,113.54 23.98,119.93 16.17,119.93 C16.17,119.93 -171.52,119.93 -171.52,119.93 C-171.52,119.93 -171.59,6.43 -171.59,6.43z "/></g></g></g><g id="_R_G_L_1_G_N_1_N_7_T_0" transform=" translate(250, 250) translate(0, 0)"><g id="_R_G_L_1_G_N_1_T_0" transform=" translate(0, 0) translate(-50, -50)"><g id="_R_G_L_1_G" transform=" translate(50, 50) translate(-250, -250)"><g id="_R_G_L_1_G_L_1_G"><path id="_R_G_L_1_G_L_1_G_D_0_P_0" fill="#ffffff" fill-opacity="1" fill-rule="nonzero" d=" M44.55 96.62 C44.55,96.62 -26.45,96.62 -26.45,96.62 "/><path id="_R_G_L_1_G_L_1_G_D_0_P_1" fill="#ffffff" fill-opacity="1" fill-rule="nonzero" d=" M44.55 68.25 C44.55,68.25 -26.45,68.25 -26.45,68.25 "/><path id="_R_G_L_1_G_L_1_G_D_0_P_2" fill="#ffffff" fill-opacity="1" fill-rule="nonzero" d=" M-171.59 39.88 C-171.59,39.88 -125.52,39.88 -125.52,39.88 C-125.52,39.88 -80.1,-8.1 -80.1,-8.1 C-75.42,-13.77 -70.3,-16.87 -62.49,-16.87 C-62.49,-16.87 -26.45,-16.87 -26.45,-16.87 C-18.65,-16.87 -12.26,-10.49 -12.26,-2.69 C-12.26,5.11 -18.67,10.99 -26.45,11.5 C-26.45,11.5 -50.46,14.29 -50.46,14.29 C-50.46,14.29 -61.97,39.88 -61.97,39.88 C-61.97,39.88 44.55,39.88 44.55,39.88 C52.35,39.88 58.74,46.26 58.74,54.06 C58.74,61.86 52.35,68.25 44.55,68.25 C44.55,68.25 58.74,68.25 58.74,68.25 C66.54,68.25 72.92,74.63 72.92,82.44 C72.92,90.24 66.54,96.62 58.74,96.62 C58.74,96.62 44.55,96.62 44.55,96.62 C52.35,96.62 58.74,103.01 58.74,110.81 C58.74,118.62 52.35,125 44.55,125 C44.55,125 16.17,125 16.17,125 C23.98,125 30.36,131.38 30.36,139.19 C30.36,146.99 23.98,153.37 16.17,153.37 C16.17,153.37 -171.52,153.37 -171.52,153.37 C-171.52,153.37 -171.59,39.88 -171.59,39.88z "/><path id="_R_G_L_1_G_L_1_G_D_1_P_0" stroke="#000000" stroke-linecap="round" stroke-linejoin="round" fill="none" stroke-width="16" stroke-opacity="1" d=" M44.55 96.62 C44.55,96.62 -26.45,96.62 -26.45,96.62 "/><path id="_R_G_L_1_G_L_1_G_D_2_P_0" stroke="#000000" stroke-linecap="round" stroke-linejoin="round" fill="none" stroke-width="16" stroke-opacity="1" d=" M44.55 68.25 C44.55,68.25 -26.45,68.25 -26.45,68.25 "/><path id="_R_G_L_1_G_L_1_G_D_3_P_0" stroke="#000000" stroke-linecap="round" stroke-linejoin="round" fill="none" stroke-width="16" stroke-opacity="1" d=" M-171.59 39.88 C-171.59,39.88 -125.52,39.88 -125.52,39.88 C-125.52,39.88 -80.1,-8.1 -80.1,-8.1 C-75.42,-13.77 -70.3,-16.87 -62.49,-16.87 C-62.49,-16.87 -26.45,-16.87 -26.45,-16.87 C-18.65,-16.87 -12.26,-10.49 -12.26,-2.69 C-12.26,5.11 -18.67,10.99 -26.45,11.5 C-26.45,11.5 -50.46,14.29 -50.46,14.29 C-50.46,14.29 -61.97,39.88 -61.97,39.88 C-61.97,39.88 44.55,39.88 44.55,39.88 C52.35,39.88 58.74,46.26 58.74,54.06 C58.74,61.86 52.35,68.25 44.55,68.25 C44.55,68.25 58.74,68.25 58.74,68.25 C66.54,68.25 72.92,74.63 72.92,82.44 C72.92,90.24 66.54,96.62 58.74,96.62 C58.74,96.62 44.55,96.62 44.55,96.62 C52.35,96.62 58.74,103.01 58.74,110.81 C58.74,118.62 52.35,125 44.55,125 C44.55,125 16.17,125 16.17,125 C23.98,125 30.36,131.38 30.36,139.19 C30.36,146.99 23.98,153.37 16.17,153.37 C16.17,153.37 -171.52,153.37 -171.52,153.37 C-171.52,153.37 -171.59,39.88 -171.59,39.88z "/></g><g id="_R_G_L_1_G_L_0_G"><path id="_R_G_L_1_G_L_0_G_D_0_P_0" fill="#ffffff" fill-opacity="1" fill-rule="nonzero" d=" M32.05 82.44 C32.05,82.44 136.34,82.44 136.34,82.44 C136.34,82.44 136.34,-24.44 136.34,-24.44 C136.34,-24.44 32.05,-24.44 32.05,-24.44 C32.05,-24.44 32.05,39.82 32.05,39.82 C32.05,39.82 32.05,82.44 32.05,82.44z "/><path id="_R_G_L_1_G_L_0_G_D_0_P_1" fill="#ffffff" fill-opacity="1" fill-rule="nonzero" d=" M-2.8 -153.34 C-2.8,-153.34 -2.8,-69.71 -2.8,-69.71 C-2.8,-69.71 32.05,-85.58 32.05,-85.58 C32.05,-85.58 66.91,-69.71 66.91,-69.71 C66.91,-69.71 66.91,-153.34 66.91,-153.34 "/><path id="_R_G_L_1_G_L_0_G_D_0_P_2" fill="#ffffff" fill-opacity="1" fill-rule="nonzero" d=" M84.2 42.94 C84.2,42.94 104.94,42.94 104.94,42.94 "/><path id="_R_G_L_1_G_L_0_G_D_0_P_3" fill="#ffffff" fill-opacity="1" fill-rule="nonzero" d=" M63.46 15.05 C63.46,15.05 104.94,15.05 104.94,15.05 "/><path id="_R_G_L_1_G_L_0_G_D_0_P_4" fill="#ffffff" fill-opacity="1" fill-rule="nonzero" d=" M44.55 125 C44.55,125 171.48,125 171.48,125 C171.48,125 171.48,-153.37 171.48,-153.37 C171.48,-153.37 -107.38,-153.37 -107.38,-153.37 C-107.38,-153.37 -107.38,125 -107.38,125 C-107.38,125 44.55,125 44.55,125z "/><path id="_R_G_L_1_G_L_0_G_D_1_P_0" stroke="#e7b70b" stroke-linecap="round" stroke-linejoin="round" fill="none" stroke-width="16" stroke-opacity="1" d=" M32.05 82.44 C32.05,82.44 136.34,82.44 136.34,82.44 C136.34,82.44 136.34,-24.44 136.34,-24.44 C136.34,-24.44 32.05,-24.44 32.05,-24.44 C32.05,-24.44 32.05,39.82 32.05,39.82 C32.05,39.82 32.05,82.44 32.05,82.44z "/><path id="_R_G_L_1_G_L_0_G_D_2_P_0" stroke="#e7b70b" stroke-linecap="round" stroke-linejoin="round" fill="none" stroke-width="16" stroke-opacity="1" d=" M-2.8 -153.34 C-2.8,-153.34 -2.8,-69.71 -2.8,-69.71 C-2.8,-69.71 32.05,-85.58 32.05,-85.58 C32.05,-85.58 66.91,-69.71 66.91,-69.71 C66.91,-69.71 66.91,-153.34 66.91,-153.34 "/><path id="_R_G_L_1_G_L_0_G_D_3_P_0" stroke="#e7b70b" stroke-linecap="round" stroke-linejoin="round" fill="none" stroke-width="16" stroke-opacity="1" d=" M84.2 42.94 C84.2,42.94 104.94,42.94 104.94,42.94 "/><path id="_R_G_L_1_G_L_0_G_D_4_P_0" stroke="#e7b70b" stroke-linecap="round" stroke-linejoin="round" fill="none" stroke-width="16" stroke-opacity="1" d=" M63.46 15.05 C63.46,15.05 104.94,15.05 104.94,15.05 "/><path id="_R_G_L_1_G_L_0_G_D_5_P_0" stroke="#000000" stroke-linecap="round" stroke-linejoin="round" fill="none" stroke-width="16" stroke-opacity="1" d=" M44.55 125 C44.55,125 171.48,125 171.48,125 C171.48,125 171.48,-153.37 171.48,-153.37 C171.48,-153.37 -107.38,-153.37 -107.38,-153.37 C-107.38,-153.37 -107.38,125 -107.38,125 C-107.38,125 44.55,125 44.55,125z "/></g></g></g></g><g id="_R_G_L_0_G_N_1_N_7_T_0" transform=" translate(250, 250) translate(0, 0)"><g id="_R_G_L_0_G_N_1_T_0" transform=" translate(0, 0) translate(-50, -50)"><g id="_R_G_L_0_G"><path id="_R_G_L_0_G_D_0_P_0" stroke="#000000" stroke-linecap="round" stroke-linejoin="round" fill="none" stroke-width="16" stroke-opacity="1" d=" M44.55 96.62 C44.55,96.62 -26.45,96.62 -26.45,96.62 "/><path id="_R_G_L_0_G_D_1_P_0" stroke="#000000" stroke-linecap="round" stroke-linejoin="round" fill="none" stroke-width="16" stroke-opacity="1" d=" M44.55 68.25 C44.55,68.25 -26.45,68.25 -26.45,68.25 "/><path id="_R_G_L_0_G_D_2_P_0" stroke="#000000" stroke-linecap="round" stroke-linejoin="round" fill="none" stroke-width="16" stroke-opacity="1" d=" M-171.59 39.88 C-171.59,39.88 -125.52,39.88 -125.52,39.88 C-125.52,39.88 -80.1,-8.1 -80.1,-8.1 C-75.42,-13.77 -70.3,-16.87 -62.49,-16.87 C-62.49,-16.87 -26.45,-16.87 -26.45,-16.87 C-18.65,-16.87 -12.26,-10.49 -12.26,-2.69 C-12.26,5.11 -18.67,10.99 -26.45,11.5 C-26.45,11.5 -50.46,14.29 -50.46,14.29 C-50.46,14.29 -61.97,39.88 -61.97,39.88 C-61.97,39.88 44.55,39.88 44.55,39.88 C52.35,39.88 58.74,46.26 58.74,54.06 C58.74,61.86 52.35,68.25 44.55,68.25 C44.55,68.25 58.74,68.25 58.74,68.25 C66.54,68.25 72.92,74.63 72.92,82.44 C72.92,90.24 66.54,96.62 58.74,96.62 C58.74,96.62 44.55,96.62 44.55,96.62 C52.35,96.62 58.74,103.01 58.74,110.81 C58.74,118.62 52.35,125 44.55,125 C44.55,125 16.17,125 16.17,125 C23.98,125 30.36,131.38 30.36,139.19 C30.36,146.99 23.98,153.37 16.17,153.37 C16.17,153.37 -171.52,153.37 -171.52,153.37 C-171.52,153.37 -171.59,39.88 -171.59,39.88z "/></g></g></g></g><g id="time_group"/></svg>